<?xml version="1.0" encoding="utf-8"?>
<!-- Generator: Adobe Illustrator 16.0.0, SVG Export Plug-In . SVG Version: 6.00 Build 0)  -->
<!DOCTYPE svg PUBLIC "-//W3C//DTD SVG 1.1//EN" "http://www.w3.org/Graphics/SVG/1.1/DTD/svg11.dtd">
<svg version="1.1" id="Calque_1" xmlns="http://www.w3.org/2000/svg" xmlns:xlink="http://www.w3.org/1999/xlink" x="0px" y="0px"
	 width="69px" height="69px" viewBox="0 0 69 69" enable-background="new 0 0 69 69" xml:space="preserve">
<path fill="none" stroke="#E5E5E5" stroke-width="1.15" stroke-linecap="round" stroke-linejoin="round" stroke-miterlimit="10" d="
	M13.615,34.5c0-11.527,9.357-20.886,20.885-20.886c11.527,0,20.885,9.358,20.885,20.886c0,11.527-9.355,20.887-20.885,20.887
	C22.972,55.387,13.615,46.027,13.615,34.5z"/>
<g id="Calque_2" display="none">
	
		<rect x="-5.25" y="-5" display="inline" fill="#1D71B8" stroke="#1D1D1B" stroke-linecap="round" stroke-linejoin="round" stroke-miterlimit="10" width="93.25" height="83.375"/>
</g>
<g id="Calque_1_1_">
	
		<path fill="none" stroke="#CCCCCC" stroke-width="1.15" stroke-linecap="round" stroke-linejoin="round" stroke-miterlimit="10" d="
		M27.65,34.501c0-3.788,3.062-6.851,6.85-6.851s6.85,3.062,6.85,6.851s-3.062,6.849-6.85,6.849S27.65,38.289,27.65,34.501z"/>
	
		<path fill="none" stroke="#CCCCCC" stroke-width="1.15" stroke-linecap="round" stroke-linejoin="round" stroke-miterlimit="10" d="
		M25.37,34.5c0-5.041,4.089-9.13,9.13-9.13c5.04,0,9.13,4.089,9.13,9.13c0,5.038-4.09,9.13-9.13,9.13
		C29.459,43.63,25.37,39.538,25.37,34.5z"/>
	<g>
		<path fill="#CCCCCC" d="M34.5,1.395c18.254,0,33.104,14.851,33.104,33.104c0,18.254-14.851,33.104-33.104,33.104
			S1.396,52.753,1.396,34.499C1.396,16.246,16.247,1.395,34.5,1.395 M34.5,0.25C15.584,0.25,0.25,15.584,0.25,34.5
			S15.584,68.75,34.5,68.75S68.75,53.415,68.75,34.5S53.416,0.25,34.5,0.25L34.5,0.25z"/>
	</g>
	
		<path fill="none" stroke="#CCCCCC" stroke-width="1.15" stroke-linecap="round" stroke-linejoin="round" stroke-miterlimit="10" d="
		M34.265,49.607c4.805,0.14,6.557,4.315,9.805,8.982c3.24,4.68-0.742,5.332-0.742,5.332s-4.814,1.538-9.375,1.538
		c-4.658,0-8.406-1.538-8.406-1.538s-3.982-0.652-0.734-5.332C28.051,53.924,29.48,49.745,34.265,49.607z"/>
	
		<path fill="none" stroke="#CCCCCC" stroke-width="1.15" stroke-linecap="round" stroke-linejoin="round" stroke-miterlimit="10" d="
		M34.618,19.166c-4.805-0.138-6.567-4.305-9.806-8.983c-3.249-4.678,0.734-5.333,0.734-5.333s4.814-1.536,9.385-1.536
		c4.657,0,8.395,1.536,8.395,1.536s3.982,0.655,0.742,5.333C40.822,14.86,39.393,19.028,34.618,19.166z"/>
	
		<path fill="none" stroke="#CCCCCC" stroke-width="1.15" stroke-linecap="round" stroke-linejoin="round" stroke-miterlimit="10" d="
		M47.328,42.387c2.516-4.089,7.018-3.523,12.684-4.002c5.663-0.472,4.246,3.307,4.246,3.307s-1.074,4.943-3.355,8.895
		c-2.33,4.033-5.528,6.51-5.528,6.51s-2.563,3.11-4.991-2.027C47.956,49.92,45.059,46.594,47.328,42.387z"/>
	
		<path fill="none" stroke="#CCCCCC" stroke-width="1.15" stroke-linecap="round" stroke-linejoin="round" stroke-miterlimit="10" d="
		M21.554,26.593c-2.525,4.09-7.016,3.523-12.683,3.992c-5.666,0.48-4.257-3.307-4.257-3.307s1.087-4.932,3.366-8.885
		c2.33-4.031,5.529-6.507,5.529-6.507s2.564-3.122,4.991,2.026C20.929,19.06,23.823,22.386,21.554,26.593z"/>
	
		<path fill="none" stroke="#CCCCCC" stroke-width="1.15" stroke-linecap="round" stroke-linejoin="round" stroke-miterlimit="10" d="
		M47.555,27.396c-2.291-4.228,0.448-7.838,2.875-12.985c2.428-5.147,4.992-2.026,4.992-2.026s3.739,3.405,6.02,7.358
		c2.328,4.033,2.879,8.045,2.879,8.045s1.406,3.776-4.258,3.308C54.393,30.615,50.061,31.466,47.555,27.396z"/>
	
		<path fill="none" stroke="#CCCCCC" stroke-width="1.15" stroke-linecap="round" stroke-linejoin="round" stroke-miterlimit="10" d="
		M21.563,41.643c2.29,4.229-0.45,7.83-2.877,12.977c-2.428,5.146-4.991,2.035-4.991,2.035s-3.728-3.404-6.018-7.357
		c-2.329-4.044-2.866-8.044-2.866-8.044s-1.419-3.776,4.247-3.31C14.732,38.414,19.059,37.562,21.563,41.643z"/>
</g>
</svg>
