<?xml version="1.0" encoding="utf-8"?>
<!-- Generator: Adobe Illustrator 16.0.0, SVG Export Plug-In . SVG Version: 6.00 Build 0)  -->
<!DOCTYPE svg PUBLIC "-//W3C//DTD SVG 1.1//EN" "http://www.w3.org/Graphics/SVG/1.1/DTD/svg11.dtd">
<svg version="1.1" id="Calque_1" xmlns="http://www.w3.org/2000/svg" xmlns:xlink="http://www.w3.org/1999/xlink" x="0px" y="0px"
	 width="69px" height="69px" viewBox="0 0 69 69" enable-background="new 0 0 69 69" xml:space="preserve">
<g id="Calque_2" display="none">
	
		<rect x="-10.345" y="-3.85" display="inline" fill="#E6007E" stroke="#1D1D1B" stroke-linecap="round" stroke-linejoin="round" stroke-miterlimit="10" width="81.498" height="79.079"/>
</g>
<g id="Calque_1_1_">
	<g>
		<path fill="#CCCCCC" d="M34.5,1.384c18.251,0,33.1,14.849,33.1,33.101c0,18.251-14.849,33.099-33.1,33.099S1.4,52.736,1.4,34.485
			C1.4,16.234,16.249,1.384,34.5,1.384 M34.5,0.234c-18.916,0-34.25,15.334-34.25,34.25c0,18.917,15.334,34.25,34.25,34.25
			S68.75,53.4,68.75,34.485C68.75,15.568,53.416,0.234,34.5,0.234L34.5,0.234z"/>
	</g>
	
		<circle fill="none" stroke="#DDDDDD" stroke-width="1.15" stroke-linecap="round" stroke-linejoin="round" stroke-miterlimit="10" cx="34.499" cy="34.485" r="20.501"/>
	
		<path fill="none" stroke="#CCCCCC" stroke-width="1.15" stroke-linecap="round" stroke-linejoin="round" stroke-miterlimit="10" d="
		M27.65,34.485c0-3.788,3.062-6.851,6.85-6.851s6.85,3.063,6.85,6.851c0,3.787-3.062,6.849-6.85,6.849S27.65,38.271,27.65,34.485z"
		/>
	
		<path fill="none" stroke="#CCCCCC" stroke-width="1.15" stroke-linecap="round" stroke-linejoin="round" stroke-miterlimit="10" d="
		M25.369,34.485c0-5.04,4.092-9.131,9.131-9.131s9.131,4.091,9.131,9.131c0,5.039-4.092,9.13-9.131,9.13
		S25.369,39.523,25.369,34.485z"/>
	
		<path fill="none" stroke="#CCCCCC" stroke-width="1.15" stroke-linecap="round" stroke-linejoin="round" stroke-miterlimit="10" d="
		M29.402,62.549h10.235c0,0,0.205-3.346-0.566-7.562c-0.588-3.143-3.034-7.85-3.034-7.85H33.12c0,0-2.427,3.436-3.249,7.838
		C29.166,58.723,29.402,62.549,29.402,62.549z"/>
	
		<path fill="none" stroke="#CCCCCC" stroke-width="1.15" stroke-linecap="round" stroke-linejoin="round" stroke-miterlimit="10" d="
		M61.881,25.315l-5.295-9.071c0,0-3.082,1.458-6.429,4.237c-2.495,2.064-5.411,6.566-5.411,6.566l1.506,2.583
		c0,0,4.316,0.45,8.65-0.989C58.602,27.419,61.881,25.315,61.881,25.315z"/>
	
		<path fill="none" stroke="#CCCCCC" stroke-width="1.15" stroke-linecap="round" stroke-linejoin="round" stroke-miterlimit="10" d="
		M12.414,16.254l-4.541,8.318c0,0,2.495,1.839,6.282,3.415c2.976,1.233,8.504,1.801,8.504,1.801l1.497-2.583
		c0,0-2.016-4.042-5.598-7.007C15.662,17.79,12.414,16.254,12.414,16.254z"/>
	
		<line fill="none" stroke="#CCCCCC" stroke-width="1.15" stroke-linecap="square" stroke-linejoin="round" stroke-miterlimit="10" x1="34.5" y1="22.849" x2="34.5" y2="25.354"/>
	
		<line fill="none" stroke="#CCCCCC" stroke-width="1.15" stroke-linecap="square" stroke-linejoin="round" stroke-miterlimit="10" x1="25.183" y1="41.113" x2="26.903" y2="39.697"/>
	
		<line fill="none" stroke="#CCCCCC" stroke-width="1.15" stroke-linecap="square" stroke-linejoin="round" stroke-miterlimit="10" x1="43.757" y1="41.127" x2="42.178" y2="39.684"/>
</g>
</svg>
